<?xml version="1.0" encoding="UTF-8"?>
<svg width="700pt" height="700pt" fill="#509bd7" version="1.1" viewBox="0 0 700 700" xmlns="http://www.w3.org/2000/svg" xmlns:xlink="http://www.w3.org/1999/xlink">

 <g>
  <path d="m226.28 280.01c0 68.227 55.5 123.72 123.72 123.72 68.227 0 123.72-55.5 123.72-123.72 0-68.332-55.5-123.83-123.72-123.83s-123.72 55.5-123.72 123.83z"/>
  <path d="m515.02 114.99c-2.8008-2.707-6.9062-3.5469-10.359-1.9609l-90.441 39.852c27.066 13.625 49.094 35.746 62.812 62.812l39.852-90.348c1.5898-3.543 0.83984-7.6523-1.8633-10.355z"/>
  <path d="m414.21 407.03 90.441 39.852c1.2148 0.55859 2.4258 0.83984 3.7344 0.83984 2.4258 0 4.7617-1.0273 6.625-2.8008 2.707-2.707 3.4531-6.8125 1.8672-10.359l-39.852-90.348c-13.723 27.07-35.75 49.188-62.816 62.816z"/>
  <path d="m305.57 415.24 35.746 92.121c1.3047 3.5469 4.7617 5.9727 8.6797 5.9727 3.8281 0 7.2812-2.4258 8.6797-5.9727l35.746-92.121c-13.906 4.668-28.934 7.1875-44.426 7.1875s-30.52-2.5195-44.426-7.1875z"/>
  <path d="m222.97 344.12-39.945 90.441c-1.4922 3.5469-0.74609 7.6523 1.9609 10.359 1.7734 1.7734 4.1992 2.8008 6.625 2.8008 1.2148 0 2.5195-0.28125 3.7344-0.83984l90.441-39.852c-27.07-13.633-49.188-35.844-62.816-62.91z"/>
  <path d="m577.36 271.23-92.121-35.652c4.668 14 7.1875 28.934 7.1875 44.426s-2.5195 30.332-7.1875 44.332l92.121-35.652c3.5469-1.3984 5.9727-4.8516 5.9727-8.6797 0-3.9219-2.4258-7.375-5.9727-8.7734z"/>
  <path d="m116.67 280c0 3.8281 2.332 7.2812 5.9727 8.6797l92.121 35.652c-4.668-14-7.1875-28.84-7.1875-44.332s2.5195-30.426 7.1875-44.426l-92.121 35.652c-3.6406 1.3984-5.9727 4.8516-5.9727 8.7734z"/>
  <path d="m184.99 114.99c-2.707 2.707-3.4531 6.8125-1.9609 10.359l39.945 90.441c13.625-27.066 35.746-49.281 62.812-62.906l-90.441-39.852c-3.543-1.5898-7.6484-0.75-10.355 1.957z"/>
  <path d="m394.43 144.67-35.746-92.121c-1.3984-3.5469-4.8516-5.8789-8.6797-5.8789-3.918 0-7.375 2.332-8.6797 5.8789l-35.746 92.121c13.906-4.668 28.934-7.1875 44.426-7.1875s30.52 2.5195 44.426 7.1875z"/>
  <use x="70" y="700" xlink:href="#m"/>
  <use x="104.25" y="700" xlink:href="#d"/>
  <use x="127.261719" y="700" xlink:href="#b"/>
  <use x="158.914062" y="700" xlink:href="#c"/>
  <use x="190.402344" y="700" xlink:href="#a"/>
  <use x="212.710937" y="700" xlink:href="#b"/>
  <use x="244.363281" y="700" xlink:href="#i"/>
  <use x="294.015625" y="700" xlink:href="#h"/>
  <use x="327.417969" y="700" xlink:href="#g"/>
  <use x="374.085938" y="700" xlink:href="#f"/>
  <use x="410.203125" y="700" xlink:href="#b"/>
  <use x="441.851562" y="700" xlink:href="#l"/>
  <use x="469.515625" y="700" xlink:href="#a"/>
  <use x="491.824219" y="700" xlink:href="#k"/>
  <use x="523.882812" y="700" xlink:href="#d"/>
  <use x="546.898438" y="700" xlink:href="#j"/>
  <use x="574.675781" y="700" xlink:href="#a"/>
  <use x="596.984375" y="700" xlink:href="#c"/>
  <use x="628.472656" y="700" xlink:href="#e"/>
  <use x="644.46875" y="700" xlink:href="#e"/>
 </g>
</svg>
