<?xml version="1.0" encoding="UTF-8"?>
<svg width="700pt" height="700pt" fill="#509bd7" version="1.1" viewBox="0 0 700 700" xmlns="http://www.w3.org/2000/svg" xmlns:xlink="http://www.w3.org/1999/xlink">
 <g>
  <path d="m327.6 33.602c-49.484 0-89.602 40.113-89.602 89.602 0 49.484 40.113 89.602 89.602 89.602 49.484 0 89.602-40.113 89.602-89.602 0-49.484-40.113-89.602-89.602-89.602zm0 235.2c-105.48 0-190.4 51.332-190.4 112v89.602h291.9c-0.42187-2.3945-0.70312-4.9844-0.70312-7.5273v-78.75c24.145-9.1992 48.566-16.766 72.801-25.727 4.8398 1.7617 9.6797 3.3711 14.523 5.0742-14.301-52.809-92.852-94.672-188.12-94.672zm173.6 100.8-61.602 22.398v70.875c0 26.383 32.727 44.859 61.602 63.523 28.875-18.668 61.602-37.145 61.602-63.523v-70.875z"/>
  <use x="70" y="644" xlink:href="#t"/>
  <use x="90.550781" y="644" xlink:href="#c"/>
  <use x="104.359375" y="644" xlink:href="#b"/>
  <use x="123.347656" y="644" xlink:href="#a"/>
  <use x="142.242188" y="644" xlink:href="#d"/>
  <use x="155.628906" y="644" xlink:href="#b"/>
  <use x="174.617188" y="644" xlink:href="#j"/>
  <use x="204.410156" y="644" xlink:href="#i"/>
  <use x="224.453125" y="644" xlink:href="#h"/>
  <use x="252.453125" y="644" xlink:href="#a"/>
  <use x="271.34375" y="644" xlink:href="#c"/>
  <use x="285.15625" y="644" xlink:href="#f"/>
  <use x="294.75" y="644" xlink:href="#g"/>
  <use x="314.6875" y="644" xlink:href="#a"/>
  <use x="333.578125" y="644" xlink:href="#s"/>
  <use x="349.875" y="644" xlink:href="#r"/>
  <use x="368.5" y="644" xlink:href="#a"/>
  <use x="70" y="672" xlink:href="#q"/>
  <use x="82.183594" y="672" xlink:href="#c"/>
  <use x="95.992188" y="672" xlink:href="#e"/>
  <use x="115.226562" y="672" xlink:href="#p"/>
  <use x="154.152344" y="672" xlink:href="#d"/>
  <use x="167.535156" y="672" xlink:href="#o"/>
  <use x="187.46875" y="672" xlink:href="#b"/>
  <use x="216.207031" y="672" xlink:href="#n"/>
  <use x="239.640625" y="672" xlink:href="#e"/>
  <use x="258.878906" y="672" xlink:href="#g"/>
  <use x="278.8125" y="672" xlink:href="#m"/>
  <use x="308.492188" y="672" xlink:href="#l"/>
  <use x="329.015625" y="672" xlink:href="#c"/>
  <use x="342.820312" y="672" xlink:href="#e"/>
  <use x="362.058594" y="672" xlink:href="#f"/>
  <use x="371.65625" y="672" xlink:href="#b"/>
  <use x="390.648438" y="672" xlink:href="#k"/>
  <use x="407.242188" y="672" xlink:href="#d"/>
 </g>
</svg>
