<?xml version="1.0" encoding="UTF-8"?>
<svg width="700pt" height="700pt" fill="#509bd7" version="1.1" viewBox="0 0 700 700" xmlns="http://www.w3.org/2000/svg" xmlns:xlink="http://www.w3.org/1999/xlink">

 <g>
  <path d="m550.48 126.56h-389.76c-30.801 0-56 25.199-56 56v195.44c0 30.801 25.199 56 56 56h389.76c30.801 0 56-25.199 56-56v-195.44c0-31.359-25.199-56-56-56zm-400.96 44.801h0.55859-0.55859zm0 217.28h0.55859zm412.16 0h-0.55859 0.55859zm0-45.922c-25.199 2.2383-45.359 21.84-49.84 46.48h-312.48c-4.4805-24.641-24.641-43.68-49.84-46.48v-125.44c25.199-2.2383 45.359-21.84 49.84-46.48h316.96c3.9219 23.52 22.398 41.441 45.922 45.922l-0.003907 126z"/>
  <path d="m234.08 220.64c0 10.824-8.7734 19.598-19.598 19.598s-19.602-8.7734-19.602-19.598 8.7773-19.602 19.602-19.602 19.598 8.7773 19.598 19.602"/>
  <path d="m516.32 339.36c0 10.824-8.7773 19.602-19.602 19.602s-19.598-8.7773-19.598-19.602 8.7734-19.598 19.598-19.598 19.602 8.7734 19.602 19.598"/>
  <path d="m355.6 184.8c-25.199 0-49.281 10.078-67.199 28-17.922 17.922-28 42-28 67.199s10.078 49.281 28 67.199c17.922 17.922 42 28 67.199 28 25.199 0 49.281-10.078 67.199-28 17.922-17.922 28-42 28-67.199s-10.078-49.281-28-67.199c-17.922-17.922-42-28-67.199-28z"/>
  <use x="70" y="644" xlink:href="#u"/>
  <use x="90.550781" y="644" xlink:href="#c"/>
  <use x="104.359375" y="644" xlink:href="#a"/>
  <use x="123.347656" y="644" xlink:href="#j"/>
  <use x="142.242188" y="644" xlink:href="#b"/>
  <use x="155.628906" y="644" xlink:href="#a"/>
  <use x="174.617188" y="644" xlink:href="#i"/>
  <use x="204.410156" y="644" xlink:href="#h"/>
  <use x="224.453125" y="644" xlink:href="#g"/>
  <use x="252.453125" y="644" xlink:href="#f"/>
  <use x="274.121094" y="644" xlink:href="#t"/>
  <use x="294.164062" y="644" xlink:href="#e"/>
  <use x="314.097656" y="644" xlink:href="#s"/>
  <use x="70" y="672" xlink:href="#r"/>
  <use x="82.183594" y="672" xlink:href="#c"/>
  <use x="95.992188" y="672" xlink:href="#d"/>
  <use x="115.226562" y="672" xlink:href="#q"/>
  <use x="154.152344" y="672" xlink:href="#b"/>
  <use x="167.535156" y="672" xlink:href="#p"/>
  <use x="187.46875" y="672" xlink:href="#a"/>
  <use x="216.207031" y="672" xlink:href="#o"/>
  <use x="239.640625" y="672" xlink:href="#d"/>
  <use x="258.878906" y="672" xlink:href="#n"/>
  <use x="278.8125" y="672" xlink:href="#e"/>
  <use x="308.492188" y="672" xlink:href="#m"/>
  <use x="329.015625" y="672" xlink:href="#c"/>
  <use x="342.820312" y="672" xlink:href="#d"/>
  <use x="362.058594" y="672" xlink:href="#l"/>
  <use x="371.65625" y="672" xlink:href="#a"/>
  <use x="390.648438" y="672" xlink:href="#k"/>
  <use x="407.242188" y="672" xlink:href="#b"/>
 </g>
</svg>
