<?xml version="1.0" encoding="UTF-8"?>
<svg width="50pt" height="50pt" fill="#d35649" version="1.1" viewBox="0 0 700 700" xmlns="http://www.w3.org/2000/svg" xmlns:xlink="http://www.w3.org/1999/xlink">
 <g>
  <path d="m377.22 515.67h-54.445l-15.555-52.891c-20.223-4.668-38.891-12.445-56.777-23.332l-48.223 26.445-38.109-38.109 26.445-48.223c-10.891-17.109-18.668-36.555-23.332-56.777l-52.891-15.555v-54.445l52.891-15.555c4.668-20.223 12.445-38.891 23.332-56.777l-26.445-48.223 38.109-38.109 48.223 26.445c17.109-10.891 36.555-18.668 56.777-23.332l15.555-52.891h54.445l15.555 52.891c20.223 4.668 38.891 12.445 56.777 23.332l48.223-26.445 38.109 38.109-26.445 48.223c10.891 17.109 18.668 36.555 23.332 56.777l52.891 15.555v54.445l-52.891 15.555c-4.668 20.223-12.445 38.891-23.332 56.777l26.445 48.223-38.109 38.109-48.223-26.445c-17.109 10.891-36.555 18.668-56.777 23.332zm-36.555-23.336h19.445l14-49.777 7-1.5547c21.777-3.8906 42.777-12.445 60.668-24.891l6.2227-3.8906 45.109 24.891 14-14-24.891-45.109 3.8906-6.2227c12.445-18.668 21-38.891 24.891-60.668l1.5547-7 49.777-14v-19.445l-49.777-14-1.5586-7.7734c-3.8906-21.777-12.445-42.777-24.891-60.668l-3.8906-6.2227 24.891-45.109-14-14-45.109 24.891-6.2227-3.8906c-18.668-12.445-38.891-21-60.668-24.891l-7-1.5547-14-49.777h-19.445l-14 49.777-7.7734 1.5547c-21.777 3.8906-42.777 12.445-60.668 24.891l-6.2227 3.8906-45.109-24.891-14 14 24.891 45.109-3.8906 6.2227c-12.445 18.668-21 38.891-24.891 60.668l-1.5547 7-49.777 14v19.445l49.777 14 1.5547 7c3.8906 21.777 12.445 42.777 24.891 60.668l3.8906 6.2227-24.891 45.109 14 14 45.109-24.891 6.2227 3.8906c18.668 12.445 38.891 21 60.668 24.891l7 1.5547z"/>
  <path d="m350 385c-57.555 0-105-47.445-105-105s47.445-105 105-105 105 47.445 105 105-47.445 105-105 105zm0-186.67c-45.109 0-81.668 36.555-81.668 81.668 0 45.109 36.559 81.668 81.668 81.668s81.668-36.559 81.668-81.668-36.559-81.668-81.668-81.668z"/>
  <use x="70" y="676.667969" xlink:href="#u"/>
  <use x="98.539063" y="676.667969" xlink:href="#a"/>
  <use x="117.71875" y="676.667969" xlink:href="#c"/>
  <use x="144.09375" y="676.667969" xlink:href="#b"/>
  <use x="170.335938" y="676.667969" xlink:href="#e"/>
  <use x="188.925781" y="676.667969" xlink:href="#c"/>
  <use x="215.300781" y="676.667969" xlink:href="#f"/>
  <use x="256.679688" y="676.667969" xlink:href="#m"/>
  <use x="284.515625" y="676.667969" xlink:href="#l"/>
  <use x="323.40625" y="676.667969" xlink:href="#k"/>
  <use x="362.101562" y="676.667969" xlink:href="#d"/>
  <use x="388.820313" y="676.667969" xlink:href="#j"/>
  <use x="416.507812" y="676.667969" xlink:href="#b"/>
  <use x="442.75" y="676.667969" xlink:href="#i"/>
  <use x="483.269531" y="676.667969" xlink:href="#b"/>
  <use x="509.511719" y="676.667969" xlink:href="#f"/>
  <use x="550.890625" y="676.667969" xlink:href="#t"/>
  <use x="580.984375" y="676.667969" xlink:href="#a"/>
  <use x="600.164063" y="676.667969" xlink:href="#s"/>
  <use x="613.496094" y="676.667969" xlink:href="#h"/>
  <use x="643.953125" y="676.667969" xlink:href="#g"/>
  <use x="672.453125" y="676.667969" xlink:href="#a"/>
  <use x="691.632813" y="676.667969" xlink:href="#b"/>
  <use x="70" y="715.554688" xlink:href="#h"/>
  <use x="86.917969" y="715.554688" xlink:href="#a"/>
  <use x="106.097656" y="715.554688" xlink:href="#d"/>
  <use x="132.816406" y="715.554688" xlink:href="#i"/>
  <use x="186.875" y="715.554688" xlink:href="#e"/>
  <use x="205.464844" y="715.554688" xlink:href="#j"/>
  <use x="233.152344" y="715.554688" xlink:href="#c"/>
  <use x="273.066406" y="715.554688" xlink:href="#r"/>
  <use x="305.613281" y="715.554688" xlink:href="#d"/>
  <use x="332.328125" y="715.554688" xlink:href="#q"/>
  <use x="360.015625" y="715.554688" xlink:href="#p"/>
  <use x="401.238281" y="715.554688" xlink:href="#g"/>
  <use x="429.742188" y="715.554688" xlink:href="#a"/>
  <use x="448.917969" y="715.554688" xlink:href="#d"/>
  <use x="475.636719" y="715.554688" xlink:href="#o"/>
  <use x="488.96875" y="715.554688" xlink:href="#c"/>
  <use x="515.34375" y="715.554688" xlink:href="#n"/>
  <use x="538.394531" y="715.554688" xlink:href="#e"/>
 </g>
</svg>
